<?xml version="1.0" standalone="no"?>
<!DOCTYPE svg PUBLIC "-//W3C//DTD SVG 20010904//EN"
 "http://www.w3.org/TR/2001/REC-SVG-20010904/DTD/svg10.dtd">
<svg version="1.0" xmlns="http://www.w3.org/2000/svg"
 width="484.000000pt" height="484.000000pt" viewBox="0 0 484.000000 484.000000"
 preserveAspectRatio="xMidYMid meet">
<metadata>
Created by potrace 1.16, written by Peter Selinger 2001-2019
</metadata>
<g transform="translate(0.000000,484.000000) scale(0.100000,-0.100000)"
fill="#000000" stroke="none">
<path d="M399 2868 c-1 -2 -2 -25 -3 -51 -2 -48 5 -61 34 -62 8 0 21 -4 29 -9
10 -7 12 -6 6 4 -6 10 -4 11 6 4 8 -5 26 -9 42 -10 15 -1 29 -3 32 -4 3 -1 14
-4 25 -5 11 -1 22 -4 25 -5 3 -1 14 -4 25 -5 11 -1 23 -4 28 -5 4 -1 24 -2 45
-2 21 1 35 -2 33 -7 -3 -4 7 -7 22 -6 15 1 33 -3 41 -9 12 -9 13 -8 6 4 -7 12
-6 13 7 3 15 -13 28 -8 28 12 0 13 -58 14 -78 1 -7 -4 -12 -4 -11 1 1 4 0 11
-1 16 -1 4 -3 12 -4 17 0 6 -5 9 -11 8 -5 -2 -9 -7 -7 -11 1 -5 -2 -6 -7 -3
-5 4 -12 -2 -15 -11 -3 -13 -4 -11 -3 4 1 12 -2 21 -8 20 -5 -1 -9 -5 -8 -8 1
-3 -4 -6 -12 -6 -8 0 -13 3 -12 6 1 3 -2 6 -8 6 -5 0 -9 -4 -7 -10 2 -5 0 -7
-4 -3 -4 4 -14 2 -23 -5 -14 -10 -14 -10 -3 5 8 10 9 19 3 22 -5 3 -12 0 -15
-6 -3 -7 -4 -6 -3 4 1 9 -2 17 -8 16 -5 0 -9 -3 -8 -7 1 -5 -10 -7 -25 -6 -15
1 -33 -2 -39 -8 -14 -10 -15 -9 -17 23 0 11 -5 19 -11 18 -5 -2 -9 -7 -7 -11
1 -5 -2 -6 -7 -3 -5 4 -12 0 -15 -6 -3 -9 -5 -8 -3 2 1 8 -3 15 -8 15 -6 0 -9
-4 -7 -8 1 -5 -2 -6 -7 -3 -5 3 -8 14 -6 24 1 9 -3 24 -9 32 -6 8 -1 6 12 -4
20 -18 27 -15 22 9 -1 6 2 7 6 3 4 -4 14 -2 22 5 13 10 14 9 7 -2 -6 -10 -4
-12 5 -6 8 5 11 4 6 -3 -3 -6 -2 -13 4 -17 5 -3 10 2 11 12 0 14 2 13 10 -6 8
-19 12 -21 24 -11 8 7 15 9 15 5 0 -4 7 -2 15 5 16 13 17 12 19 -20 0 -11 6
-19 11 -17 6 1 9 6 7 12 -2 5 6 1 17 -9 20 -18 26 -15 21 9 -1 5 7 1 18 -8 20
-18 29 -14 28 12 -1 17 -56 24 -56 8 0 -6 -6 -3 -13 7 -9 12 -29 19 -58 21
-24 2 -45 4 -46 5 -2 2 -7 4 -13 5 -5 1 -11 4 -12 5 -10 8 -58 5 -58 -4 0 -7
-3 -7 -8 -1 -6 9 -31 18 -33 13z"/>
<path d="M616 2420 c-1 -3 -1 -11 0 -17 1 -7 2 -19 3 -26 1 -9 16 -14 44 -15
23 0 58 -2 77 -4 19 -2 41 1 49 7 11 7 13 7 7 -2 -8 -14 -7 -14 66 -17 35 -2
45 1 37 10 -5 6 -23 10 -39 9 -17 -1 -28 2 -27 9 1 6 -4 10 -11 8 -8 -1 -11 2
-7 8 3 6 12 7 18 3 20 -13 37 -12 37 2 0 7 -8 12 -17 10 -10 -1 -28 2 -41 6
-41 16 -72 18 -72 6 0 -8 -3 -8 -8 -2 -7 11 -111 15 -116 5z"/>
</g>
</svg>
